<svg xmlns="http://www.w3.org/2000/svg" width="165" height="73" fill="none" viewBox="0 0 165 73"><path fill="#fff" d="M45.7615 18.5591C45.0351 16.7552 44.3201 15.1801 43.6164 13.8336C42.9127 12.4616 41.9934 11.0389 40.8584 9.56535C39.7235 8.0918 38.5091 6.88502 37.2152 5.945C35.9214 5.00498 34.3324 4.2301 32.4484 3.62035C30.5644 3.01061 28.4874 2.70574 26.2175 2.70574C23.766 2.70574 21.5415 3.26467 19.544 4.38253C17.5464 5.50039 15.9007 6.96124 14.6069 8.76506C13.3357 10.5689 12.2575 12.6649 11.3723 15.053C10.5097 17.4158 9.89682 19.804 9.53364 22.2175C9.17045 24.6057 8.98886 27.032 8.98886 29.4963C8.98886 31.9353 9.1818 34.3616 9.56769 36.7752C9.95357 39.1633 10.5891 41.5388 11.4744 43.9015C12.3824 46.2643 13.4946 48.3349 14.8112 50.1133C16.1277 51.8917 17.7848 53.3399 19.7823 54.4577C21.8025 55.5502 24.0384 56.0964 26.4899 56.0964C31.4837 56.0964 34.9567 54.8515 36.9088 52.3617V36.8895C36.9088 36.356 36.7158 35.8859 36.33 35.4795C35.9441 35.0475 35.5014 34.7173 35.0021 34.4886C34.5027 34.26 33.8331 34.0567 32.9932 33.8789C32.176 33.6756 31.5064 33.5359 30.9843 33.4597C30.4622 33.3835 29.804 33.3072 29.0095 33.231C28.9187 32.8245 28.8733 32.5197 28.8733 32.3164C28.8733 32.1386 28.9187 31.8464 29.0095 31.4399C34.1395 31.6431 38.0891 31.7448 40.8584 31.7448C43.6731 31.7448 47.6228 31.6431 52.7074 31.4399C52.8209 31.948 52.8776 32.2402 52.8776 32.3164C52.8776 32.418 52.8209 32.7229 52.7074 33.231C51.9129 33.3072 51.2546 33.3835 50.7326 33.4597C50.2105 33.5359 49.5295 33.6756 48.6896 33.8789C47.8725 34.0567 47.2142 34.26 46.7148 34.4886C46.2381 34.7173 45.8069 35.0475 45.421 35.4795C45.0351 35.8859 44.8421 36.356 44.8421 36.8895V42.5296C44.8421 47.3567 45.3529 51.3074 46.3743 54.3815C42.629 55.9313 39.3035 57.0618 36.3981 57.7732C33.4926 58.4846 30.1898 58.8402 26.4899 58.8402C24.2881 58.8402 22.0749 58.5862 19.8504 58.0781C17.6259 57.5699 15.2879 56.6172 12.8364 55.2199C10.4076 53.8226 8.26248 52.0696 6.40116 49.9609C4.56253 47.8522 3.03033 45.0321 1.80458 41.5007C0.601527 37.9692 0 33.9678 0 29.4963C0 26.2698 0.306438 23.2846 0.919315 20.5407C1.55489 17.7715 2.39476 15.396 3.43892 13.4144C4.48308 11.4327 5.72018 9.65427 7.15023 8.0791C8.60297 6.50393 10.1125 5.22093 11.6787 4.2301C13.2449 3.23926 14.8906 2.42627 16.6158 1.79112C18.3636 1.13057 20.0206 0.673258 21.5869 0.419199C23.1531 0.139733 24.6967 0 26.2175 0C28.7598 0 31.1773 0.177842 33.4699 0.533526C35.7852 0.863803 38.0891 1.283 40.3818 1.79112C42.6744 2.27384 44.4903 2.60411 45.8296 2.78195C45.4891 3.92522 45.3188 5.5385 45.3188 7.62179C45.3188 11.077 45.8749 14.4433 46.9872 17.7207C46.851 18.178 46.4424 18.4574 45.7615 18.5591Z"/><path fill="#fff" d="M104.938 18.5591C104.212 16.7552 103.497 15.1801 102.793 13.8336C102.089 12.4616 101.17 11.0389 100.035 9.56535C98.9001 8.0918 97.6857 6.88502 96.3919 5.945C95.098 5.00498 93.5091 4.2301 91.6251 3.62035C89.741 3.01061 87.6641 2.70574 85.3941 2.70574C82.9426 2.70574 80.7181 3.26467 78.7206 4.38253C76.7231 5.50039 75.0774 6.96124 73.7835 8.76506C72.5124 10.5689 71.4342 12.6649 70.5489 15.053C69.6863 17.4158 69.0735 19.804 68.7103 22.2175C68.3471 24.6057 68.1655 27.032 68.1655 29.4963C68.1655 31.9353 68.3584 34.3616 68.7443 36.7752C69.1302 39.1633 69.7658 41.5388 70.6511 43.9015C71.559 46.2643 72.6713 48.3349 73.9878 50.1133C75.3044 51.8917 76.9614 53.3399 78.9589 54.4577C80.9792 55.5502 83.215 56.0964 85.6665 56.0964C90.6603 56.0964 94.1333 54.8515 96.0854 52.3617V36.8895C96.0854 36.356 95.8925 35.8859 95.5066 35.4795C95.1207 35.0475 94.6781 34.7173 94.1787 34.4886C93.6793 34.26 93.0097 34.0567 92.1698 33.8789C91.3527 33.6756 90.683 33.5359 90.161 33.4597C89.6389 33.3835 88.9806 33.3072 88.1861 33.231C88.0953 32.8245 88.0499 32.5197 88.0499 32.3164C88.0499 32.1386 88.0953 31.8464 88.1861 31.4399C93.3161 31.6431 97.2658 31.7448 100.035 31.7448C102.85 31.7448 106.799 31.6431 111.884 31.4399C111.998 31.948 112.054 32.2402 112.054 32.3164C112.054 32.418 111.998 32.7229 111.884 33.231C111.09 33.3072 110.431 33.3835 109.909 33.4597C109.387 33.5359 108.706 33.6756 107.866 33.8789C107.049 34.0567 106.391 34.26 105.891 34.4886C105.415 34.7173 104.983 35.0475 104.598 35.4795C104.212 35.8859 104.019 36.356 104.019 36.8895V42.5296C104.019 47.3567 104.53 51.3074 105.551 54.3815C101.806 55.9313 98.4802 57.0618 95.5747 57.7732C92.6692 58.4846 89.3665 58.8402 85.6665 58.8402C83.4647 58.8402 81.2515 58.5862 79.027 58.0781C76.8025 57.5699 74.4645 56.6172 72.013 55.2199C69.5842 53.8226 67.4391 52.0696 65.5778 49.9609C63.7392 47.8522 62.207 45.0321 60.9812 41.5007C59.7782 37.9692 59.1766 33.9678 59.1766 29.4963C59.1766 26.2698 59.4831 23.2846 60.096 20.5407C60.7315 17.7715 61.5714 15.396 62.6156 13.4144C63.6597 11.4327 64.8968 9.65427 66.3269 8.0791C67.7796 6.50393 69.2891 5.22093 70.8553 4.2301C72.4216 3.23926 74.0673 2.42627 75.7924 1.79112C77.5402 1.13057 79.1973 0.673258 80.7635 0.419199C82.3298 0.139733 83.8733 0 85.3941 0C87.9364 0 90.3539 0.177842 92.6465 0.533526C94.9618 0.863803 97.2658 1.283 99.5584 1.79112C101.851 2.27384 103.667 2.60411 105.006 2.78195C104.666 3.92522 104.495 5.5385 104.495 7.62179C104.495 11.077 105.052 14.4433 106.164 17.7207C106.028 18.178 105.619 18.4574 104.938 18.5591Z"/><path fill="#fff" d="M116.481 1.33381C120.294 1.48625 124.266 1.56247 128.398 1.56247H132.313C133.97 1.53706 136.83 1.52436 140.894 1.52436C144.979 1.49895 148.464 1.47355 151.346 1.44814C154.252 1.42273 157.135 1.35922 159.995 1.2576C160.176 3.01061 160.562 4.83984 161.152 6.74529C161.743 8.62533 162.31 10.1751 162.855 11.3946C163.4 12.5887 164.115 14.0368 165 15.739C164.818 16.1709 164.421 16.5139 163.808 16.7679C162.991 15.0403 162.004 13.5033 160.846 12.1568C159.688 10.8102 158.224 9.53995 156.454 8.34586C154.706 7.15178 152.515 6.17365 149.882 5.41147C147.272 4.64929 144.298 4.14117 140.962 3.88711H132.313C132.018 14.8625 131.871 23.1575 131.871 28.7723H141.574C142.142 28.7723 142.675 28.7215 143.175 28.6198C143.674 28.4928 144.14 28.2896 144.571 28.0101C145.025 27.7306 145.411 27.4639 145.728 27.2098C146.069 26.9303 146.421 26.5238 146.784 25.9903C147.17 25.4314 147.476 24.9741 147.703 24.6184C147.93 24.2627 148.214 23.7038 148.554 22.9416C148.895 22.154 149.156 21.557 149.338 21.1505C149.519 20.744 149.792 20.0707 150.155 19.1307C150.541 18.1907 150.824 17.5047 151.006 17.0728C151.8 17.4539 152.232 17.7715 152.3 18.0255C150.961 21.9381 150.291 25.9141 150.291 29.9536C150.291 33.9678 150.961 37.9565 152.3 41.9199C152.141 42.2755 151.71 42.6058 151.006 42.9107C149.621 39.176 148.566 36.6735 147.839 35.4032C146.16 32.5832 144.071 31.1604 141.574 31.135H131.871C131.871 36.5973 131.995 43.5713 132.245 52.0569C132.268 52.7174 132.529 53.289 133.028 53.7718C133.528 54.2291 134.243 54.5847 135.173 54.8388C136.127 55.0929 136.921 55.2834 137.557 55.4104C138.215 55.5121 139.066 55.6137 140.11 55.7153C140.201 56.2234 140.247 56.5664 140.247 56.7443C140.247 56.9475 140.201 57.2016 140.11 57.5064C136.252 57.354 132.302 57.2778 128.261 57.2778C124.176 57.2778 120.226 57.354 116.413 57.5064C116.322 57.2016 116.276 56.9475 116.276 56.7443C116.276 56.5664 116.322 56.2234 116.413 55.7153C117.093 55.6391 117.638 55.5756 118.047 55.5248C118.455 55.474 119.012 55.385 119.715 55.258C120.442 55.131 121.02 54.9912 121.452 54.8388C121.906 54.661 122.371 54.445 122.848 54.191C123.324 53.9369 123.676 53.632 123.903 53.2763C124.153 52.9207 124.278 52.5142 124.278 52.0569C124.55 44.1048 124.686 36.0892 124.686 28.0101C124.686 19.7786 124.573 12.6776 124.346 6.70718C124.323 6.04662 124.062 5.48769 123.563 5.03038C123.086 4.57308 122.36 4.21739 121.384 3.96333C120.408 3.70927 119.624 3.54413 119.034 3.46792C118.444 3.36629 117.593 3.25197 116.481 3.12494C116.39 2.66763 116.344 2.35005 116.344 2.17221C116.344 2.01978 116.39 1.74031 116.481 1.33381Z"/><path fill="#fff" d="M54.5651 72.8872V66.4707H58.0026V67.16H55.2593V69.328H57.745V70.0173H55.2593V72.8872H54.5651Z"/><path fill="#fff" d="M62.258 72.8872H61.5302L63.6352 66.4707H64.3518L66.4569 72.8872H65.7291L64.0159 67.4858H63.9711L62.258 72.8872ZM62.5267 70.3808H65.4604V71.07H62.5267V70.3808Z"/><path fill="#fff" d="M74.0322 68.0748C73.9987 67.7573 73.8624 67.5109 73.6236 67.3354C73.3847 67.16 73.0917 67.0722 72.7446 67.0722C72.4908 67.0722 72.2687 67.1182 72.0784 67.2101C71.8899 67.302 71.7424 67.4284 71.6361 67.5892C71.5316 67.75 71.4793 67.9328 71.4793 68.1375C71.4793 68.3087 71.5157 68.456 71.5885 68.5792C71.6631 68.7004 71.7583 68.8017 71.874 68.8831C71.9897 68.9625 72.111 69.0283 72.2379 69.0805C72.3648 69.1307 72.4815 69.1714 72.5878 69.2027L73.1701 69.3782C73.3194 69.422 73.4855 69.4826 73.6683 69.5599C73.8531 69.6372 74.0294 69.7427 74.1974 69.8763C74.3672 70.0079 74.5072 70.1771 74.6173 70.3839C74.7274 70.5907 74.7824 70.8445 74.7824 71.1452C74.7824 71.492 74.7013 71.8053 74.5389 72.0851C74.3784 72.365 74.1433 72.5875 73.8335 72.7525C73.5256 72.9175 73.1514 73 72.711 73C72.3004 73 71.9449 72.9259 71.6445 72.7776C71.3459 72.6293 71.1108 72.4225 70.9391 72.1572C70.7692 71.8919 70.6731 71.5839 70.6507 71.2329H71.3673C71.386 71.4752 71.4588 71.6758 71.5857 71.8345C71.7145 71.9911 71.8768 72.1081 72.0728 72.1854C72.2706 72.2606 72.4833 72.2982 72.711 72.2982C72.976 72.2982 73.2139 72.2502 73.4248 72.1541C73.6357 72.0559 73.8027 71.9201 73.9259 71.7468C74.049 71.5713 74.1106 71.3666 74.1106 71.1327C74.1106 70.9196 74.0574 70.7463 73.9511 70.6126C73.8447 70.4789 73.7047 70.3703 73.5312 70.2868C73.3576 70.2032 73.1701 70.1301 72.9685 70.0675L72.2631 69.8419C71.8152 69.6978 71.4607 69.492 71.1994 69.2247C70.9381 68.9573 70.8075 68.6074 70.8075 68.1751C70.8075 67.8158 70.8943 67.5025 71.0678 67.2352C71.2432 66.9657 71.4784 66.7568 71.7732 66.6085C72.07 66.4582 72.4012 66.383 72.767 66.383C73.1365 66.383 73.4649 66.4571 73.7523 66.6054C74.0397 66.7516 74.2674 66.9521 74.4353 67.207C74.6052 67.4618 74.6947 67.7511 74.7041 68.0748H74.0322Z"/><path fill="#fff" d="M79.4711 72.8872V66.4707H80.1653V69.328H83.2221V66.4707H83.9163V72.8872H83.2221V70.0173H80.1653V72.8872H79.4711Z"/><path fill="#fff" d="M89.5476 66.4707V72.8872H88.8533V66.4707H89.5476Z"/><path fill="#fff" d="M99.3238 69.6789C99.3238 70.3557 99.2147 70.9405 98.9963 71.4335C98.778 71.9264 98.4785 72.3066 98.0978 72.5739C97.7171 72.8413 97.2822 72.9749 96.7933 72.9749C96.3044 72.9749 95.8696 72.8413 95.4889 72.5739C95.1082 72.3066 94.8086 71.9264 94.5903 71.4335C94.3719 70.9405 94.2628 70.3557 94.2628 69.6789C94.2628 69.0022 94.3719 68.4174 94.5903 67.9244C94.8086 67.4315 95.1082 67.0513 95.4889 66.784C95.8696 66.5166 96.3044 66.383 96.7933 66.383C97.2822 66.383 97.7171 66.5166 98.0978 66.784C98.4785 67.0513 98.778 67.4315 98.9963 67.9244C99.2147 68.4174 99.3238 69.0022 99.3238 69.6789ZM98.652 69.6789C98.652 69.1233 98.569 68.6544 98.4029 68.2722C98.2387 67.89 98.0157 67.6007 97.7339 67.4043C97.4539 67.208 97.1404 67.1098 96.7933 67.1098C96.4462 67.1098 96.1318 67.208 95.85 67.4043C95.57 67.6007 95.347 67.89 95.1809 68.2722C95.0167 68.6544 94.9346 69.1233 94.9346 69.6789C94.9346 70.2345 95.0167 70.7035 95.1809 71.0857C95.347 71.4679 95.57 71.7572 95.85 71.9536C96.1318 72.1499 96.4462 72.2481 96.7933 72.2481C97.1404 72.2481 97.4539 72.1499 97.7339 71.9536C98.0157 71.7572 98.2387 71.4679 98.4029 71.0857C98.569 70.7035 98.652 70.2345 98.652 69.6789Z"/><path fill="#fff" d="M108.584 66.4707V72.8872H107.913L104.789 67.8492H104.733V72.8872H104.038V66.4707H104.71L107.845 71.5212H107.901V66.4707H108.584Z"/><path fill="#56193F" d="M37.3106 16.5575H123.414V31.4883H37.3106V16.5575Z"/><path fill="#fff" d="M43.3798 24.0465C43.3215 23.8418 43.2431 23.6585 43.1447 23.4965C43.0482 23.3323 42.9326 23.1929 42.798 23.0782C42.6633 22.9612 42.5096 22.8723 42.3367 22.8116C42.1659 22.7509 41.978 22.7205 41.773 22.7205C41.4253 22.7205 41.1118 22.8206 40.8325 23.0208C40.5531 23.221 40.332 23.5145 40.1693 23.9014C40.0085 24.2861 39.9281 24.7573 39.9281 25.3152C39.9281 25.8753 40.0095 26.3488 40.1723 26.7357C40.3351 27.1225 40.5581 27.4161 40.8415 27.6163C41.1249 27.8165 41.4474 27.9166 41.8092 27.9166C42.1448 27.9166 42.4372 27.8401 42.6864 27.6871C42.9377 27.5342 43.1316 27.3182 43.2683 27.0393C43.4069 26.7581 43.4763 26.4275 43.4763 26.0473L43.7174 26.098H41.9509V25.2376H44.3776V26.0237C44.3776 26.6041 44.2671 27.1079 44.046 27.5353C43.827 27.9604 43.5235 28.2889 43.1356 28.5205C42.7497 28.7522 42.3076 28.8681 41.8092 28.8681C41.2505 28.8681 40.7601 28.7241 40.3381 28.4362C39.918 28.1483 39.5905 27.74 39.3553 27.2114C39.1202 26.6805 39.0026 26.0507 39.0026 25.3219C39.0026 24.7708 39.0709 24.276 39.2076 23.8373C39.3443 23.3987 39.5362 23.0264 39.7834 22.7205C40.0326 22.4123 40.325 22.1773 40.6606 22.0153C40.9983 21.8511 41.3671 21.769 41.767 21.769C42.1006 21.769 42.4111 21.8241 42.6985 21.9343C42.9879 22.0446 43.2451 22.2009 43.4702 22.4033C43.6973 22.6058 43.8852 22.8465 44.034 23.1254C44.1827 23.4021 44.2832 23.7091 44.3354 24.0465H43.3798Z"/><path fill="#fff" d="M47.0032 28.7736V21.8635H47.9347V27.8761H50.7323V28.7736H47.0032Z"/><path fill="#fff" d="M54.0746 28.7736H53.0858L55.3076 21.8635H56.3838L58.6055 28.7736H57.6168L55.8713 23.1186H55.8231L54.0746 28.7736ZM54.2404 26.0676H57.4479V26.9448H54.2404V26.0676Z"/><path fill="#fff" d="M60.9403 21.8635H62.0707L64.0362 27.235H64.1086L66.0741 21.8635H67.2046V28.7736H66.3183V23.7732H66.261L64.4402 28.7635H63.7046L61.8838 23.7698H61.8265V28.7736H60.9403V21.8635Z"/><path fill="#fff" d="M75.365 25.3185C75.365 26.0563 75.2444 26.6907 75.0032 27.2215C74.7621 27.7501 74.4315 28.1573 74.0114 28.4429C73.5934 28.7264 73.1181 28.8681 72.5855 28.8681C72.0509 28.8681 71.5736 28.7264 71.1536 28.4429C70.7356 28.1573 70.406 27.749 70.1648 27.2181C69.9236 26.6873 69.8031 26.0541 69.8031 25.3185C69.8031 24.5807 69.9236 23.9475 70.1648 23.4189C70.406 22.8881 70.7356 22.4809 71.1536 22.1975C71.5736 21.9119 72.0509 21.769 72.5855 21.769C73.1181 21.769 73.5934 21.9119 74.0114 22.1975C74.4315 22.4809 74.7621 22.8881 75.0032 23.4189C75.2444 23.9475 75.365 24.5807 75.365 25.3185ZM74.4425 25.3185C74.4425 24.7562 74.3611 24.2827 74.1983 23.8981C74.0375 23.5112 73.8165 23.2187 73.5351 23.0208C73.2558 22.8206 72.9392 22.7205 72.5855 22.7205C72.2298 22.7205 71.9123 22.8206 71.6329 23.0208C71.3536 23.2187 71.1325 23.5112 70.9697 23.8981C70.8089 24.2827 70.7285 24.7562 70.7285 25.3185C70.7285 25.8809 70.8089 26.3555 70.9697 26.7424C71.1325 27.127 71.3536 27.4195 71.6329 27.6197C71.9123 27.8176 72.2298 27.9166 72.5855 27.9166C72.9392 27.9166 73.2558 27.8176 73.5351 27.6197C73.8165 27.4195 74.0375 27.127 74.1983 26.7424C74.3611 26.3555 74.4425 25.8809 74.4425 25.3185Z"/><path fill="#fff" d="M81.9397 21.8635H82.8742V26.4084C82.8742 26.892 82.7727 27.3205 82.5697 27.6939C82.3668 28.065 82.0814 28.3575 81.7136 28.5712C81.3458 28.7826 80.9147 28.8883 80.4203 28.8883C79.928 28.8883 79.4979 28.7826 79.1301 28.5712C78.7623 28.3575 78.4769 28.065 78.274 27.6939C78.071 27.3205 77.9695 26.892 77.9695 26.4084V21.8635H78.901V26.324C78.901 26.6367 78.9623 26.9145 79.0849 27.1574C79.2095 27.4003 79.3853 27.5915 79.6124 27.731C79.8395 27.8682 80.1088 27.9368 80.4203 27.9368C80.7339 27.9368 81.0042 27.8682 81.2313 27.731C81.4604 27.5915 81.6352 27.4003 81.7558 27.1574C81.8784 26.9145 81.9397 26.6367 81.9397 26.324V21.8635Z"/><path fill="#fff" d="M85.6717 28.7736V21.8635H87.8723C88.3506 21.8635 88.7476 21.9557 89.0631 22.1402C89.3806 22.3246 89.6178 22.5799 89.7745 22.9061C89.9313 23.23 90.0097 23.6045 90.0097 24.0296C90.0097 24.4525 89.9303 24.8248 89.7715 25.1465C89.6147 25.4659 89.3776 25.7144 89.0601 25.8921C88.7445 26.0698 88.3476 26.1587 87.8693 26.1587H86.2022V25.2612H87.7849C88.0864 25.2612 88.3315 25.2128 88.5204 25.1161C88.7114 25.0194 88.851 24.8788 88.9395 24.6943C89.0279 24.5099 89.0721 24.2883 89.0721 24.0296C89.0721 23.7687 89.0269 23.5427 88.9365 23.3515C88.848 23.1603 88.7084 23.0141 88.5174 22.9128C88.3285 22.8094 88.0803 22.7576 87.7728 22.7576H86.6032V28.7736H85.6717ZM88.7194 25.656L90.2448 28.7736H89.1837L87.6884 25.656H88.7194Z"/><path fill="#fff" d="M96.7645 24.0465C96.7062 23.8418 96.6278 23.6585 96.5294 23.4965C96.4329 23.3323 96.3173 23.1929 96.1827 23.0782C96.048 22.9612 95.8943 22.8723 95.7215 22.8116C95.5506 22.7509 95.3627 22.7205 95.1577 22.7205C94.8101 22.7205 94.4965 22.8206 94.2172 23.0208C93.9378 23.221 93.7168 23.5145 93.554 23.9014C93.3932 24.2861 93.3128 24.7573 93.3128 25.3152C93.3128 25.8753 93.3942 26.3488 93.557 26.7357C93.7198 27.1225 93.9429 27.4161 94.2262 27.6163C94.5096 27.8165 94.8322 27.9166 95.1939 27.9166C95.5295 27.9166 95.8219 27.8401 96.0712 27.6871C96.3224 27.5342 96.5163 27.3182 96.653 27.0393C96.7916 26.7581 96.861 26.4275 96.861 26.0473L97.1021 26.098H95.3356V25.2376H97.7623V26.0237C97.7623 26.6041 97.6518 27.1079 97.4307 27.5353C97.2117 27.9604 96.9082 28.2889 96.5203 28.5205C96.1345 28.7522 95.6923 28.8681 95.1939 28.8681C94.6352 28.8681 94.1448 28.7241 93.7228 28.4362C93.3028 28.1483 92.9752 27.74 92.74 27.2114C92.5049 26.6805 92.3873 26.0507 92.3873 25.3219C92.3873 24.7708 92.4557 24.276 92.5923 23.8373C92.729 23.3987 92.9209 23.0264 93.1681 22.7205C93.4173 22.4123 93.7097 22.1773 94.0453 22.0153C94.383 21.8511 94.7518 21.769 95.1517 21.769C95.4853 21.769 95.7958 21.8241 96.0832 21.9343C96.3726 22.0446 96.6299 22.2009 96.8549 22.4033C97.082 22.6058 97.27 22.8465 97.4187 23.1254C97.5674 23.4021 97.6679 23.7091 97.7201 24.0465H96.7645Z"/><path fill="#fff" d="M100.388 28.7736V21.8635H101.319V27.8761H104.117V28.7736H100.388Z"/><path fill="#fff" d="M111.745 25.3185C111.745 26.0563 111.625 26.6907 111.384 27.2215C111.142 27.7501 110.812 28.1573 110.392 28.4429C109.974 28.7264 109.498 28.8681 108.966 28.8681C108.431 28.8681 107.954 28.7264 107.534 28.4429C107.116 28.1573 106.786 27.749 106.545 27.2181C106.304 26.6873 106.183 26.0541 106.183 25.3185C106.183 24.5807 106.304 23.9475 106.545 23.4189C106.786 22.8881 107.116 22.4809 107.534 22.1975C107.954 21.9119 108.431 21.769 108.966 21.769C109.498 21.769 109.974 21.9119 110.392 22.1975C110.812 22.4809 111.142 22.8881 111.384 23.4189C111.625 23.9475 111.745 24.5807 111.745 25.3185ZM110.823 25.3185C110.823 24.7562 110.741 24.2827 110.579 23.8981C110.418 23.5112 110.197 23.2187 109.915 23.0208C109.636 22.8206 109.32 22.7205 108.966 22.7205C108.61 22.7205 108.293 22.8206 108.013 23.0208C107.734 23.2187 107.513 23.5112 107.35 23.8981C107.189 24.2827 107.109 24.7562 107.109 25.3185C107.109 25.8809 107.189 26.3555 107.35 26.7424C107.513 27.127 107.734 27.4195 108.013 27.6197C108.293 27.8176 108.61 27.9166 108.966 27.9166C109.32 27.9166 109.636 27.8176 109.915 27.6197C110.197 27.4195 110.418 27.127 110.579 26.7424C110.741 26.3555 110.823 25.8809 110.823 25.3185Z"/><path fill="#fff" d="M115.484 28.7736L113.772 21.8635H114.752L115.954 27.2148H116.012L117.263 21.8635H118.233L119.484 27.2181H119.542L120.742 21.8635H121.724L120.009 28.7736H119.071L117.772 23.5978H117.724L116.425 28.7736H115.484Z"/></svg>